<?xml version="1.0" encoding="UTF-8"?>
<svg xmlns="http://www.w3.org/2000/svg" xmlns:xlink="http://www.w3.org/1999/xlink" viewBox="0 0 100 100" width="100px" height="100px">
<g id="surface2597066">
<path style=" stroke:none;fill-rule:nonzero;fill:rgb(5.490196%,45.882353%,62.352943%);fill-opacity:1;" d="M 58.386719 48.144531 C 58.386719 41.96875 68.421875 41.429688 68.421875 29.359375 C 68.421875 20.617188 62.339844 16.429688 61.71875 16.050781 L 67.773438 16.050781 L 73.828125 12.5 L 54.210938 12.5 C 34.253906 12.5 31.054688 26.464844 31.054688 31.089844 C 31.054688 37.988281 36.449219 46.558594 47.300781 46.558594 C 48.292969 46.558594 49.339844 46.496094 50.453125 46.375 C 50.269531 46.886719 49.488281 48.644531 49.488281 50.230469 C 49.488281 53.550781 51.613281 55.664062 52.34375 56.945312 C 40.464844 56.835938 26.171875 61.988281 26.171875 73.449219 C 26.171875 77.636719 29.773438 87.5 46.691406 87.5 C 65.992188 87.5 71.839844 75.585938 71.839844 68.910156 C 71.828125 56.152344 58.386719 54.039062 58.386719 48.144531 Z M 51.832031 43.882812 C 45.082031 43.882812 39.378906 35.386719 39.378906 26.304688 C 39.378906 23.609375 40.671875 15.773438 48.144531 15.773438 C 57.761719 15.773438 60.105469 30.03125 60.105469 33.910156 C 60.105469 34.816406 60.742188 43.882812 51.832031 43.882812 Z M 51.367188 83.375 C 45.179688 83.375 34.496094 80.738281 34.496094 71.363281 C 34.496094 68.113281 36.390625 59.632812 52.820312 59.632812 C 53.664062 59.632812 54.394531 59.667969 55.015625 59.730469 C 58.433594 62.28125 65.515625 65.964844 65.515625 72.753906 C 65.515625 75.828125 63.683594 83.375 51.367188 83.375 Z M 51.367188 83.375 "/>
</g>
</svg>
